<mxfile host="app.diagrams.net" modified="2025-09-23T19:50:00.000Z" agent="AI" version="22.0.0" type="device"><diagram id="arch" name="Architecture"><mxGraphModel><root><mxCell id="0"/><mxCell id="1" parent="0"/><mxCell id="2" value="Publisher\n(Node.js)" style="shape=process;whiteSpace=wrap;html=1;rounded=1;fillColor=#dae8fc;strokeColor=#6c8ebf;" vertex="1" parent="1"><mxGeometry x="60" y="120" width="140" height="70" as="geometry"/></mxCell><mxCell id="3" value="Broker MQTT\nHiveMQ (WS)" style="shape=cloud;whiteSpace=wrap;html=1;fillColor=#fff2cc;strokeColor=#d6b656;" vertex="1" parent="1"><mxGeometry x="260" y="105" width="160" height="100" as="geometry"/></mxCell><mxCell id="4" value="Frontend\n(React + Vite)" style="shape=process;whiteSpace=wrap;html=1;rounded=1;fillColor=#d5e8d4;strokeColor=#82b366;" vertex="1" parent="1"><mxGeometry x="480" y="120" width="160" height="70" as="geometry"/></mxCell><mxCell id="5" value="topics granulares\n- home/livingroom/temperature\n- home/livingroom/humidity\n- home/main/power\ny consolidado\n- home/sensors" style="shape=note;whiteSpace=wrap;html=1;size=12;fillColor=#fff;strokeColor=#999;" vertex="1" parent="1"><mxGeometry x="220" y="220" width="260" height="120" as="geometry"/></mxCell><mxCell id="6" style="edgeStyle=orthogonalEdgeStyle;rounded=0;orthogonalLoop=1;jettySize=auto;html=1;endArrow=block;endFill=1;" edge="1" parent="1" source="2" target="3"><mxGeometry relative="1" as="geometry"/></mxCell><mxCell id="7" style="edgeStyle=orthogonalEdgeStyle;rounded=0;orthogonalLoop=1;jettySize=auto;html=1;endArrow=block;endFill=1;" edge="1" parent="1" source="3" target="4"><mxGeometry relative="1" as="geometry"/></mxCell></root></mxGraphModel></diagram></mxfile>
